<svg width="85" height="90" viewBox="0 0 85 90" fill="none" xmlns="http://www.w3.org/2000/svg">
<path fill-rule="evenodd" clip-rule="evenodd" d="M26.9899 2.43457C26.7177 3.77337 25.942 7.15085 25.2663 9.93939C24.5909 12.7279 24.0384 15.6219 24.0384 16.3705C24.0384 17.7512 27.4464 24.966 28.5184 25.8559C28.9867 26.2446 28.9261 26.5465 28.1771 27.5593L27.2673 28.7901L26.3514 27.9298C25.572 27.1973 25.3615 27.1588 24.9364 27.6711C24.3246 28.4082 22.4299 35.7509 22.0772 38.7507L21.8198 40.9409L25.1519 43.3573C31.0228 47.615 40.0515 51.5303 35.4165 47.8085C33.1255 45.9693 30.3975 42.2192 29.7251 39.9849C28.9579 37.4364 29.4427 36.383 30.5944 38.0961C31.0478 38.771 32.1614 39.7402 33.0683 40.25C35.1404 41.4147 37.8138 41.1899 40.9834 39.5835C42.1892 38.9725 43.2486 38.5458 43.3379 38.6351C43.4273 38.7244 43.313 39.4506 43.0843 40.2487C42.4509 42.4576 42.5623 43.0372 43.918 44.5814C45.1785 46.0167 47.503 46.9977 49.6441 46.9977C51.2437 46.9977 55.4197 44.6961 57.74 42.5351C59.3955 40.9935 59.6461 40.5434 59.5289 39.3185C59.4133 38.1113 59.1669 37.8222 57.9106 37.4182C56.7573 37.0478 56.3978 36.6841 56.2898 35.7792C56.0989 34.1826 56.4897 33.9192 59.517 33.603C60.9621 33.4518 62.1447 33.1817 62.1447 33.0021C62.1447 32.823 60.8584 31.7747 59.2867 30.673C55.6302 28.1097 55.355 27.7401 55.4396 25.5003C55.49 24.1763 55.6179 23.8346 55.8846 24.3114C56.3542 25.1506 58.4835 25.1857 59.1639 24.366C60.0691 23.2753 59.4433 22.2748 56.4236 19.9821C51.4207 16.1833 50.46 15.7434 46.0439 15.2277C43.838 14.9698 40.9876 14.82 39.7102 14.8949C37.4632 15.0266 37.3553 15.0897 36.395 16.8341C35.8492 17.8261 35.2543 18.5463 35.0735 18.4345C34.8923 18.3228 34.6387 17.2071 34.5096 15.9559C34.1708 12.6733 28.8508 0 27.8118 0C27.6322 0 27.2626 1.09577 26.9899 2.43457ZM28.0353 8.75555C27.8875 9.41267 27.5958 10.6168 27.3871 11.4319C27.1779 12.2469 27.0111 14.057 27.0166 15.4542C27.0242 17.5018 27.2905 18.4824 28.3901 20.5092C29.1404 21.892 29.9609 23.0882 30.2129 23.1669C30.9115 23.3858 31.6605 20.336 31.6516 17.3104C31.6431 14.4033 29.7624 8.04677 28.8173 7.73218C28.5294 7.63649 28.1856 8.08615 28.0353 8.75555ZM49.6073 23.9223C49.6509 25.4927 49.5641 25.626 48.4167 25.7569C47.7358 25.8344 46.1163 25.5998 44.8177 25.2357C43.161 24.7712 42.0775 24.6878 41.1862 24.9571C40.0104 25.3123 39.9837 25.3618 40.8289 25.6231C41.4314 25.8094 41.8298 26.3763 42.0017 27.2904C42.4695 29.7843 44.764 30.98 46.9703 29.8795C47.7028 29.5137 48.3684 29.2148 48.4493 29.2148C48.8096 29.2148 48.5509 32.58 48.1724 32.8137C47.9395 32.9577 47.749 33.2553 47.749 33.4751C47.749 33.6948 48.4124 33.1402 49.2237 32.2426C50.7653 30.5358 52.381 27.4238 52.3971 26.1303C52.4093 25.1213 51.1777 23.2872 50.4875 23.2872C50.1844 23.2872 49.852 23.0492 49.7483 22.7579C49.6449 22.467 49.5814 22.9908 49.6073 23.9223ZM0.328249 56.736L0.327822 57.7945L42.3506 57.695L84.3733 57.5955V56.6365V55.6775H42.351H0.328669L0.328249 56.736ZM3.93268 62.3114C1.94904 63.8716 1.59549 65.3963 1.62174 72.2825C1.63614 75.9797 1.8525 79.1315 2.151 79.9834C2.81235 81.8709 4.43568 83.0289 6.79191 83.2948C9.34927 83.5827 11.5395 82.7909 12.7052 81.157C13.5482 79.9753 13.665 79.2987 13.665 75.5969V71.3819L12.3186 70.9924C10.2401 70.3912 8.00708 70.9644 7.70265 72.1783C7.33641 73.6374 7.88556 75.0575 8.73067 74.8369C9.40981 74.6595 9.57325 75.6947 9.29169 78.3859C9.20616 79.2047 7.33937 79.6675 6.70046 79.0286C6.42736 78.7555 6.25546 76.0262 6.25546 71.9561V65.3281L7.8428 65.3721C9.3336 65.4132 9.43056 65.4975 9.43056 66.7567C9.43098 68.4537 9.66979 68.676 11.4917 68.676C13.4673 68.676 13.8767 68.3593 13.8767 66.8308C13.8767 64.9674 12.6764 62.7216 11.3003 62.0099C9.41786 61.0365 5.34134 61.2033 3.93268 62.3114ZM15.9937 72.2723V82.987H18.0303H20.0669L19.9331 78.9909C19.8082 75.2569 19.8531 74.9986 20.6194 75.0562C21.0703 75.0905 21.4222 75.2213 21.4014 75.3479C21.3807 75.4741 21.4785 75.8632 21.6195 76.2125C21.7601 76.5618 22.2749 78.2288 22.7631 79.9173L23.651 82.987H25.5131C26.5377 82.987 27.4963 82.7918 27.6437 82.5534C27.9345 82.083 25.8967 75.5046 25.1803 74.6011C24.8653 74.2031 24.8915 74.0841 25.2747 74.1777C27.3024 74.6713 28.6907 67.7411 27.1953 64.5897C26.0051 62.081 24.8971 61.6085 20.1405 61.5814L15.9937 61.5573V72.2723ZM29.1192 61.9214C29.1192 62.3766 31.8057 69.3136 32.7186 71.2164C33.0205 71.8456 33.1437 72.4172 32.9929 72.4866C32.6546 72.6428 29.0676 81.2608 28.9744 82.1402C28.9232 82.6283 29.3932 82.7753 31.0055 82.7753H33.103L34.2687 79.1763C34.9097 77.1969 35.4643 75.768 35.5012 76.0008C35.538 76.2337 35.596 76.6148 35.6303 76.8476C35.7722 77.8143 37.3087 81.9695 37.7122 82.4781C38.3494 83.2812 42.058 82.9857 41.9572 82.1402C41.9157 81.7909 40.9923 79.3817 39.905 76.7862L37.9281 72.0674L39.8825 67.1263C40.9576 64.4085 41.7531 62.0489 41.6507 61.8833C41.5482 61.7173 40.5668 61.5983 39.4702 61.6191L37.4759 61.6564L36.6482 64.1714C36.193 65.5542 35.8268 67.0408 35.8344 67.4748C35.8513 68.4278 35.5058 68.1687 35.2835 67.0607C35.1951 66.6216 34.7725 65.2146 34.344 63.9338L33.565 61.6051L31.3421 61.5505C30.0986 61.52 29.1192 61.6835 29.1192 61.9214ZM43.2774 61.8587C43.1775 62.0201 43.9697 64.3115 45.0371 66.951C47.251 72.4252 47.2794 71.9137 44.3948 78.5412C43.4823 80.6371 42.8853 82.5068 43.0678 82.6965C43.2503 82.8862 44.2356 82.9815 45.2568 82.9082L47.1138 82.7753L48.1254 79.8915C48.6986 78.2584 49.2969 77.1677 49.5052 77.376C49.7076 77.5784 50.3105 78.8762 50.8453 80.2598C51.8077 82.7503 51.8356 82.7765 53.6512 82.9082C54.6602 82.9815 55.6649 82.8616 55.8846 82.6419C56.1344 82.3921 55.5485 80.5232 54.3155 77.6398C53.2329 75.1083 52.3408 72.5607 52.3327 71.9785C52.3251 71.3963 53.1003 69.0634 54.056 66.7939C55.0116 64.5249 55.7936 62.3812 55.7936 62.0306C55.7936 61.5505 55.2851 61.3934 53.7278 61.3934C51.4762 61.3934 51.499 61.3672 50.2784 65.3383C50.0053 66.227 49.6593 66.832 49.5099 66.6826C49.3604 66.5331 48.8545 65.3294 48.3857 64.0079L47.5334 61.6051L45.496 61.5852C44.3757 61.5742 43.3773 61.6974 43.2774 61.8587ZM57.0638 62.333C57.0638 62.7674 57.3492 64.5914 57.6981 66.3862C58.8264 72.1936 60.1229 78.4896 60.6369 80.6583L61.1391 82.7753H63.8298C66.1987 82.7753 66.5345 82.6741 66.6382 81.9285C66.703 81.4627 67.5083 77.4616 68.4279 73.037C69.3472 68.6124 70.1673 64.2391 70.2503 63.3182L70.401 61.6445L68.3145 61.6398L66.2284 61.6352L65.1123 68.2805C64.4979 71.9357 63.8912 75.0308 63.7629 75.1587C63.5072 75.4144 63.3086 74.372 62.3496 67.7445C61.3868 61.089 61.6527 61.6098 59.199 61.5742C57.3865 61.548 57.0638 61.6627 57.0638 62.333ZM72.0502 62.0285C71.9684 62.2614 71.9447 67.0247 71.9981 72.6136L72.0946 82.7753H77.1755H82.2563V80.87V78.9646L79.4352 78.8402L76.6136 78.7161L76.4713 76.1503L76.3287 73.5845L78.7632 73.761L81.1978 73.938V72.1335V70.3293L78.9749 70.2011L76.7521 70.0732L76.5387 67.6814L76.3257 65.2896L79.2908 65.3527L82.2563 65.4158V63.5104V61.6051H77.2275C74.2569 61.6051 72.1382 61.7783 72.0502 62.0285ZM19.8044 68.3139V71.4708L21.1292 71.379C23.3559 71.2248 24.2903 68.8885 23.0794 66.5018C22.7229 65.7985 22.1183 65.4204 21.1804 65.3137L19.8044 65.1571V68.3139ZM0.175823 87.4297C-0.490189 89.1649 -1.45301 89.1263 42.3561 89.1263H84.3733V88.0678V87.0093L42.3971 86.9005C5.32652 86.8048 0.391759 86.8666 0.175823 87.4297Z" fill="white"/>
</svg>
